{"title":"WWE.Money.in.the.Bank.2014.06.29.HDTV.XviD-FICEK9","uid":10523242,"size":1565899969,"categoryP":"video","categoryS":"tv_shows","magnet":"?xt=urn:btih:7974d00ac77f59640f8a6b3fedc575f007ecb010&amp;dn=WWE.Money.in.the.Bank.2014.06.29.HDTV.XviD-FICEK9&amp;tr=udp%3A%2F%2Ftracker.openbittorrent.com%3A80&amp;tr=udp%3A%2F%2Fopen.demonii.com%3A1337&amp;tr=udp%3A%2F%2Ftracker.coppersurfer.tk%3A6969&amp;tr=udp%3A%2F%2Fexodus.desync.com%3A6969","seeders":2,"leechers":2,"uploader":"FICEK9","files":2,"time":1405012160,"description":"\n      Complete name : WWE.Money.in.the.Bank.2014.06.29.HDTV.XviD-FICEK9.avi\n      Format : AVI\n      Format/Info : Audio Video Interleave\n      Format profile : OpenDML\n      File size : 1.46 GiB\n      Duration : 2h 53mn\n      Overall bit rate mode : Variable\n      Overall bit rate : 1 207 Kbps\n      Writing application : MEncoder SVN-r33883(20110719-gcc4.5.2)\n      Writing library : MPlayer\n   Video #0\n      ID : 0\n      Format : MPEG-4 Visual\n      Format profile : Advanced Simple@L5\n      Format settings, BVOP : 2\n      Format settings, QPel : No\n      Format settings, GMC : No warppoints\n      Format settings, Matrix : Default (H.263)\n      Codec ID : XVID\n      Codec ID/Hint : XviD\n      Duration : 2h 53mn\n      Bit rate : 1 067 Kbps\n      Width : 624 pixels\n      Height : 352 pixels\n      Display aspect ratio : 16:9\n      Frame rate : 29.970 fps\n      Color space : YUV\n      Chroma subsampling : 4:2:0\n      Bit depth : 8 bits\n      Scan type : Progressive\n      Compression mode : Lossy\n      Bits/(Pixel*Frame) : 0.162\n      Stream size : 1.29 GiB (88%)\n      Writing library : XviD 1.2.1 (UTC 2008-12-04)\n   Audio #1\n      ID : 1\n      Format : MPEG Audio\n      Format version : Version 1\n      Format profile : Layer 3\n      Mode : Joint stereo\n      Mode extension : MS Stereo\n      Codec ID : 55\n      Codec ID/Hint : MP3\n      Duration : 2h 53mn\n      Bit rate mode : Variable\n      Bit rate : 124 Kbps\n      Channel(s) : 2 channels\n      Sampling rate : 48.0 KHz\n      Compression mode : Lossy\n      Stream size : 153 MiB (10%)\n      Alignment : Aligned on interleaves\n      Interleave, duration : 24 ms (0.72 video frame)\n      Interleave, preload duration : 223 ms\n      Writing library : LAME3.98\n","torrent":{"xt":"urn:btih:7974d00ac77f59640f8a6b3fedc575f007ecb010","amp;dn":"WWE.Money.in.the.Bank.2014.06.29.HDTV.XviD-FICEK9","amp;tr":["udp%3A%2F%2Ftracker.openbittorrent.com%3A80","udp%3A%2F%2Fopen.demonii.com%3A1337","udp%3A%2F%2Ftracker.coppersurfer.tk%3A6969","udp%3A%2F%2Fexodus.desync.com%3A6969"],"infoHash":"7974d00ac77f59640f8a6b3fedc575f007ecb010","infoHashBuffer":{"type":"Buffer","data":[121,116,208,10,199,127,89,100,15,138,107,63,237,197,117,240,7,236,176,16]},"announce":[],"urlList":[]}}